# xmcd
#
# Track frame offsets:
#	150
#	11237
#	35987
#	49844
#	70803
#	89500
#	111817
#	130464
#	152181
#	171646
#	188968
#	206805
#	220862
#	233024
#	257381
#	297143
#
# Disc length: 4397 seconds
#
# Revision: 0
# Processed by: cddbd v1.4PL0 Copyright (c) Steve Scherf et al.
# Submitted via: EZCDDA 4.3.3.2
#
DISCID=f7112b10
DTITLE=Fury In The Slaughterhouse  - Mono
DYEAR=1900
DGENRE=
TTITLE0=The Brainsong
TTITLE1=Every Generation Got Its Own Disease
TTITLE2=Dead Before I Was Born
TTITLE3=Radio Orchid
TTITLE4=Waiting For Paradise
TTITLE5=Haunted Head And Heart
TTITLE6=When I'm Dead And Gone
TTITLE7=When God Goes Home
TTITLE8=Friendly Fire
TTITLE9=Hell Gets To Nowhere
TTITLE10=Money Rules
TTITLE11=In Your Room
TTITLE12=Money Junkie
TTITLE13=unknown
TTITLE14=unknown
TTITLE15=unknown
EXTD=
EXTT0=
EXTT1=
EXTT2=
EXTT3=
EXTT4=
EXTT5=
EXTT6=
EXTT7=
EXTT8=
EXTT9=
EXTT10=
EXTT11=
EXTT12=
EXTT13=
EXTT14=
EXTT15=
PLAYORDER=
